<svg width="156" height="65" viewBox="0 0 156 65" fill="none" xmlns="http://www.w3.org/2000/svg">
<path d="M79.6774 48.8498C78.4884 48.1247 77.1445 47.61 75.7294 47.3375C72.0775 46.5914 68.7757 47.3707 68.3551 49.0779C67.9345 50.7852 70.5545 52.7733 74.2064 53.5194C75.6138 53.8232 77.07 53.8809 78.4852 53.689C79.1568 53.5846 79.6795 53.1514 79.8183 52.5844L80.3647 50.3665C80.5061 49.7998 80.2361 49.2048 79.6774 48.8498Z" fill="#D5D6DB"/>
<path d="M92.7924 23.9734C91.9301 23.4477 90.9555 23.0746 89.9292 22.8769C87.2819 22.336 84.8872 22.9006 84.5824 24.1375C84.2777 25.3744 86.1784 26.8165 88.8255 27.3573C89.8462 27.5773 90.9023 27.6188 91.9285 27.4798C92.4152 27.4039 92.7938 27.09 92.8945 26.6789L93.2901 25.073C93.3927 24.6623 93.1975 24.2309 92.7924 23.9734Z" fill="#D5D6DB"/>
<path d="M82.788 15.8844C82.6473 15.7146 82.4384 15.5941 82.2025 15.5462L75.9835 14.2761C75.4639 14.1692 74.9544 14.4373 74.8455 14.8754C74.8205 14.9757 74.8184 15.0799 74.8394 15.1821L78.0043 30.8498L98.7414 35.085L82.788 15.8844Z" fill="#029BC5"/>
<path d="M124.213 54.1427L68.0777 42.3316L39.4869 30.5815L26.9319 22.5008L27.6749 19.4222L120.563 39.8107C123.336 40.4138 125.905 41.621 128.011 43.3106C128.929 44.0551 129.738 44.8904 130.42 45.7967C131.03 46.5947 131.507 47.4574 131.835 48.3593C132.196 49.3709 133.477 50.684 133.242 51.7789C133.245 51.7791 131.214 55.8851 124.213 54.1427V54.1427Z" fill="#E1E6E9"/>
<path d="M71.3367 39.9123L32.9666 49.318C32.4511 49.4729 32.1971 49.9582 32.399 50.4017C32.5229 50.674 32.7984 50.8795 33.1309 50.948L39.332 52.229C40.5249 52.4752 41.7556 52.5134 42.948 52.3413L105.514 46.3102L71.3367 39.9123Z" fill="#029BC5"/>
<path d="M34.0617 2.24178C33.8929 1.91268 33.5498 1.66776 33.1407 1.58413L28.0042 0.534079C27.3045 0.39079 26.6194 0.752438 26.4737 1.34188C26.4461 1.45403 26.4394 1.56969 26.4543 1.68467L28.4634 17.39L43.4836 20.5977L34.0617 2.24178Z" fill="#029BC5"/>
<path d="M30.1981 21.575L18.9214 23.6344C18.7579 23.6627 18.6575 23.7992 18.6971 23.9392C18.7257 24.0401 18.8215 24.1194 18.941 24.141L23.729 25.1328C23.7662 25.1405 23.8048 25.1425 23.8423 25.1383L39.0703 23.4168L30.1981 21.575Z" fill="#029BC5"/>
<path d="M129.557 45.5338C128.855 44.5993 128.021 43.7393 127.074 42.9735C125.076 43.3371 123.243 44.1426 121.758 45.3096C121.483 45.5665 121.513 45.9713 121.825 46.2139C121.922 46.2892 122.039 46.3428 122.166 46.3694L131.009 48.1794C130.674 47.2474 130.185 46.3566 129.557 45.5338Z" fill="#029BC5"/>
<path d="M111.442 40.4043L117.201 41.6035L115.053 50.4652L109.293 49.266L111.442 40.4043Z" fill="#D5D6DB"/>
<path d="M107.037 40.4607C106.342 40.317 105.663 40.6737 105.52 41.2577L105.288 42.2037C105.168 42.792 105.639 43.3694 106.338 43.4934C107.004 43.6111 107.645 43.275 107.803 42.7239L108.035 41.7778C108.178 41.1943 107.731 40.6048 107.037 40.4607V40.4607Z" fill="#3A556A"/>
<path d="M101.901 39.3459C101.207 39.2022 100.527 39.559 100.384 40.1429L100.152 41.089C100.033 41.6773 100.503 42.2547 101.203 42.3786C101.869 42.4964 102.509 42.1603 102.668 41.6091L102.899 40.663C103.042 40.0795 102.596 39.4899 101.901 39.3459V39.3459Z" fill="#3A556A"/>
<path d="M96.7641 38.2308C96.0695 38.0879 95.3911 38.4446 95.2482 39.028L95.0165 39.9741C94.897 40.5624 95.3672 41.1398 96.0668 41.2637C96.7328 41.3815 97.3731 41.0454 97.5318 40.4942L97.7636 39.5482C97.9066 38.9642 97.4592 38.3745 96.7641 38.2308V38.2308Z" fill="#3A556A"/>
<path d="M91.6287 37.1159C90.934 36.973 90.2556 37.3297 90.1127 37.9132L89.881 38.8592C89.7615 39.4476 90.2317 40.0249 90.9313 40.1489C91.5973 40.2667 92.2376 39.9305 92.3963 39.3794L92.6281 38.4333C92.7709 37.8493 92.3235 37.2595 91.6287 37.1159V37.1159Z" fill="#3A556A"/>
<path d="M86.4932 36.0016C85.7982 35.8586 85.1195 36.2155 84.9766 36.7992L84.7448 37.7457C84.6019 38.3292 85.0491 38.9187 85.7436 39.0624C86.4382 39.2061 87.1171 38.8495 87.26 38.266L87.4918 37.3195C87.6356 36.7362 87.1891 36.1463 86.4947 36.0019C86.4941 36.0018 86.4938 36.0017 86.4932 36.0016Z" fill="#3A556A"/>
<path d="M81.3576 34.8869C80.6626 34.7439 79.9839 35.1007 79.8409 35.6845L79.6091 36.631C79.4662 37.2145 79.9135 37.804 80.608 37.9476C81.3026 38.0913 81.9815 37.7348 82.1244 37.1513L82.3562 36.2048C82.5 35.6214 82.0535 35.0316 81.3591 34.8872C81.3585 34.887 81.3579 34.8869 81.3576 34.8869Z" fill="#3A556A"/>
<path d="M76.2218 33.772C75.5267 33.629 74.8481 33.9858 74.7051 34.5696L74.4733 35.5161C74.3313 36.0997 74.7796 36.6886 75.4741 36.8315C76.1673 36.9742 76.8448 36.6184 76.9883 36.0363L77.2201 35.0898C77.3633 34.5061 76.9165 33.9162 76.2218 33.772Z" fill="#3A556A"/>
<path d="M71.086 32.6571C70.3909 32.5141 69.7123 32.871 69.5693 33.4547L69.3375 34.4012C69.1955 34.9849 69.6438 35.5738 70.3382 35.7167C71.0315 35.8593 71.709 35.5035 71.8525 34.9214L72.0843 33.9749C72.2275 33.3912 71.7807 32.8013 71.086 32.6571Z" fill="#3A556A"/>
<path d="M65.9505 31.5424C65.2554 31.3994 64.5768 31.7562 64.4338 32.3399L64.202 33.2864C64.06 33.8701 64.5083 34.459 65.2028 34.6019C65.896 34.7445 66.5735 34.3888 66.717 33.8067L66.9488 32.8602C67.0917 32.2765 66.6449 31.6865 65.9505 31.5424Z" fill="#3A556A"/>
<path d="M60.8133 30.4271C60.1187 30.2835 59.4398 30.64 59.2969 31.2235L59.2966 31.2247L59.0648 32.1712C58.9228 32.7549 59.3711 33.3438 60.0655 33.4867C60.7588 33.6293 61.4363 33.2735 61.5797 32.6915L61.8116 31.7449C61.9548 31.1613 61.508 30.5713 60.8133 30.4271Z" fill="#3A556A"/>
<path d="M55.6791 29.3127C54.9845 29.169 54.3056 29.5255 54.1627 30.109L54.1624 30.1102L53.9306 31.0567C53.7886 31.6404 54.2369 32.2293 54.9314 32.3722C55.6246 32.5148 56.3021 32.1591 56.4456 31.577L56.6774 30.6305C56.8203 30.0467 56.3735 29.4568 55.6791 29.3127Z" fill="#3A556A"/>
</svg>
