<svg aria-hidden="true" xmlns="http://www.w3.org/2000/svg" xmlns:xlink="http://www.w3.org/1999/xlink"><symbol viewBox="0 0 14 14" id="leaf" xmlns="http://www.w3.org/2000/svg">
<path d="M13.6544 0.150827C13.2855 0.0428744 4.26244 -0.855475 1.09361 3.42567C-0.309832 5.32223 -0.330914 7.9221 1.02328 11.1525C0.679764 11.8655 0.379037 12.6166 0.133956 13.4091C0.0594442 13.6499 0.194221 13.9052 0.434763 13.9795C0.479607 13.9934 0.525026 14 0.569869 14C0.764338 14 0.944888 13.8744 1.00515 13.6787C3.42037 5.87028 11.2693 2.09267 13.6762 1.13835C13.9105 1.0454 14.2235 0.317405 13.6544 0.150827Z"/>
<path d="M2.47192 12.1298C3.77832 12.6778 5.08453 12.9587 6.29922 12.9587C7.39103 12.9587 8.40923 12.7342 9.28663 12.279C11.0525 11.363 12.1315 9.61081 12.4071 7.21132C12.6878 4.7659 13.0373 3.23416 13.3289 2.29712C10.7336 3.49428 5.16878 6.5974 2.47192 12.1298Z"/>
</symbol><symbol viewBox="0 0 14 14" id="map" xmlns="http://www.w3.org/2000/svg">
<path d="M13.5009 3.56123e-08C13.4232 -2.92608e-05 13.3466 0.0180173 13.2771 0.0527336L9.48821 1.94771L5.20378 0.0432416C5.19678 0.0402533 5.18878 0.039726 5.18128 0.0367378C5.16201 0.0295308 5.14229 0.0235251 5.12228 0.0187497C5.10239 0.0133885 5.08217 0.00919911 5.06178 0.00624017C5.02118 0.00290038 4.98037 0.00290038 4.93979 0.00624017C4.9194 0.00919911 4.89919 0.0133885 4.8793 0.0187497C4.85929 0.0235251 4.83957 0.0295308 4.82029 0.0367378C4.81279 0.039726 4.80479 0.040224 4.79779 0.0432416L0.297862 2.04322C0.11722 2.12343 0.000825201 2.30255 0.000854498 2.50019V13.5C0.000942387 13.6692 0.0865172 13.8268 0.228341 13.919C0.370195 14.0114 0.549108 14.0257 0.703822 13.957L5.00076 12.047L9.29769 13.957C9.30519 13.96 9.31319 13.957 9.32069 13.9615C9.44174 14.0157 9.5807 14.0126 9.69917 13.953C9.70717 13.9496 9.71616 13.953 9.72416 13.9475L13.7241 11.9476C13.8936 11.8629 14.0007 11.6896 14.0006 11.5V0.500237C14.0008 0.224088 13.777 0.000117221 13.5009 3.56123e-08ZM4.50079 11.1751L1.00083 12.7305V2.8252L4.50079 1.26971V11.1751ZM9.00072 12.7305L5.50076 11.1751V1.26971L9.00072 2.82517V12.7305ZM13.0006 11.1911L10.0007 12.691V2.80918L13.0006 1.3092V11.1911Z"/>
</symbol><symbol viewBox="0 0 12 12" id="send" xmlns="http://www.w3.org/2000/svg">
<path d="M11.3433 0.242391L5.02577 6.58322C4.95335 6.54127 4.87719 6.50611 4.79827 6.47822L0.627435 5.06656C0.501303 5.03495 0.389349 4.9621 0.309355 4.85958C0.229361 4.75706 0.185913 4.63076 0.185913 4.50072C0.185913 4.37069 0.229361 4.24439 0.309355 4.14187C0.389349 4.03935 0.501303 3.9665 0.627435 3.93489L10.9758 0.254058C11.0434 0.231089 11.1143 0.219268 11.1858 0.219058C11.2392 0.218197 11.2924 0.226079 11.3433 0.242391Z"/>
<path d="M11.7459 1.02424L8.06503 11.3842C8.02444 11.505 7.94545 11.6091 7.84012 11.6807C7.73478 11.7524 7.6089 11.7875 7.4817 11.7809C7.35303 11.7868 7.22602 11.7499 7.1205 11.6761C7.01498 11.6022 6.93687 11.4955 6.89836 11.3726L5.51003 7.20174C5.48214 7.12282 5.44699 7.04666 5.40503 6.97424L11.7575 0.656738C11.7934 0.777293 11.7893 0.906199 11.7459 1.02424Z"/>
</symbol></svg>